<mxfile host="Electron" modified="2025-04-25T12:39:04.898Z" agent="Mozilla/5.0 (Windows NT 10.0; Win64; x64) AppleWebKit/537.36 (KHTML, like Gecko) draw.io/23.1.5 Chrome/120.0.6099.109 Electron/28.1.0 Safari/537.36" etag="OtUg93IItvEbvkMv2mqu" version="23.1.5" type="device">
  <diagram name="第 1 页" id="V5EbNqes7gqMUMs8YMRe">
    <mxGraphModel dx="4780" dy="4441" grid="1" gridSize="10" guides="1" tooltips="1" connect="1" arrows="1" fold="1" page="1" pageScale="1" pageWidth="1169" pageHeight="827" math="0" shadow="0">
      <root>
        <mxCell id="0" />
        <mxCell id="1" parent="0" />
        <mxCell id="Vj6sFvklFlHXh2tWmXzL-31" value="" style="group" parent="1" vertex="1" connectable="0">
          <mxGeometry x="807.5" y="459.38" width="105" height="110" as="geometry" />
        </mxCell>
        <mxCell id="Vj6sFvklFlHXh2tWmXzL-32" value="" style="rounded=0;whiteSpace=wrap;html=1;fillColor=#ffcc99;strokeColor=#36393d;" parent="Vj6sFvklFlHXh2tWmXzL-31" vertex="1">
          <mxGeometry width="90" height="90" as="geometry" />
        </mxCell>
        <mxCell id="Vj6sFvklFlHXh2tWmXzL-39" value="" style="group" parent="Vj6sFvklFlHXh2tWmXzL-31" vertex="1" connectable="0">
          <mxGeometry x="7.5" y="10.629999999999995" width="70" height="68.75" as="geometry" />
        </mxCell>
        <mxCell id="Vj6sFvklFlHXh2tWmXzL-34" value="top" style="ellipse;whiteSpace=wrap;html=1;aspect=fixed;" parent="Vj6sFvklFlHXh2tWmXzL-39" vertex="1">
          <mxGeometry width="30" height="30" as="geometry" />
        </mxCell>
        <mxCell id="Vj6sFvklFlHXh2tWmXzL-35" value="up" style="ellipse;whiteSpace=wrap;html=1;aspect=fixed;" parent="Vj6sFvklFlHXh2tWmXzL-39" vertex="1">
          <mxGeometry x="40" width="30" height="30" as="geometry" />
        </mxCell>
        <mxCell id="Vj6sFvklFlHXh2tWmXzL-36" value="bottom" style="ellipse;whiteSpace=wrap;html=1;aspect=fixed;" parent="Vj6sFvklFlHXh2tWmXzL-39" vertex="1">
          <mxGeometry y="38.75" width="30" height="30" as="geometry" />
        </mxCell>
        <mxCell id="Vj6sFvklFlHXh2tWmXzL-37" value="dowm" style="ellipse;whiteSpace=wrap;html=1;aspect=fixed;" parent="Vj6sFvklFlHXh2tWmXzL-39" vertex="1">
          <mxGeometry x="40" y="38.75" width="30" height="30" as="geometry" />
        </mxCell>
        <mxCell id="z3aPTN1xRcMKhVOIMbqU-1" value="" style="rounded=0;whiteSpace=wrap;html=1;fillColor=#333333;" parent="1" vertex="1">
          <mxGeometry x="145" y="130" width="960" height="270" as="geometry" />
        </mxCell>
        <mxCell id="z3aPTN1xRcMKhVOIMbqU-2" value="" style="rounded=0;whiteSpace=wrap;html=1;" parent="1" vertex="1">
          <mxGeometry x="155" y="140" width="730" height="240" as="geometry" />
        </mxCell>
        <mxCell id="iYKhy5-TffIa7aATphuN-3" style="edgeStyle=orthogonalEdgeStyle;rounded=0;orthogonalLoop=1;jettySize=auto;html=1;entryX=0;entryY=0.5;entryDx=0;entryDy=0;" parent="1" source="z3aPTN1xRcMKhVOIMbqU-23" target="iYKhy5-TffIa7aATphuN-2" edge="1">
          <mxGeometry relative="1" as="geometry" />
        </mxCell>
        <mxCell id="z3aPTN1xRcMKhVOIMbqU-23" value="" style="rounded=0;whiteSpace=wrap;html=1;" parent="1" vertex="1">
          <mxGeometry x="120" y="590" width="120" height="140" as="geometry" />
        </mxCell>
        <mxCell id="iYKhy5-TffIa7aATphuN-8" style="edgeStyle=orthogonalEdgeStyle;rounded=0;orthogonalLoop=1;jettySize=auto;html=1;exitX=1;exitY=0.75;exitDx=0;exitDy=0;entryX=0;entryY=0.5;entryDx=0;entryDy=0;" parent="1" source="iYKhy5-TffIa7aATphuN-1" target="iYKhy5-TffIa7aATphuN-6" edge="1">
          <mxGeometry relative="1" as="geometry" />
        </mxCell>
        <mxCell id="iYKhy5-TffIa7aATphuN-9" style="edgeStyle=orthogonalEdgeStyle;rounded=0;orthogonalLoop=1;jettySize=auto;html=1;exitX=1;exitY=1;exitDx=0;exitDy=0;entryX=0;entryY=0.5;entryDx=0;entryDy=0;" parent="1" source="iYKhy5-TffIa7aATphuN-1" target="iYKhy5-TffIa7aATphuN-7" edge="1">
          <mxGeometry relative="1" as="geometry">
            <Array as="points">
              <mxPoint x="270" y="690" />
              <mxPoint x="270" y="770" />
            </Array>
          </mxGeometry>
        </mxCell>
        <mxCell id="iYKhy5-TffIa7aATphuN-1" value="&lt;font style=&quot;font-size: 20px;&quot;&gt;音频来源&lt;/font&gt;" style="text;html=1;align=center;verticalAlign=middle;whiteSpace=wrap;rounded=0;" parent="1" vertex="1">
          <mxGeometry x="130" y="630" width="110" height="60" as="geometry" />
        </mxCell>
        <mxCell id="iYKhy5-TffIa7aATphuN-5" value="" style="edgeStyle=orthogonalEdgeStyle;rounded=0;orthogonalLoop=1;jettySize=auto;html=1;" parent="1" source="iYKhy5-TffIa7aATphuN-2" target="iYKhy5-TffIa7aATphuN-4" edge="1">
          <mxGeometry relative="1" as="geometry" />
        </mxCell>
        <mxCell id="iYKhy5-TffIa7aATphuN-2" value="实时音频" style="rounded=1;whiteSpace=wrap;html=1;" parent="1" vertex="1">
          <mxGeometry x="320" y="580" width="120" height="60" as="geometry" />
        </mxCell>
        <mxCell id="iYKhy5-TffIa7aATphuN-4" value="设备音响输入&lt;br&gt;外接设备输入：注意多输入设备选择&lt;br&gt;&lt;div style=&quot;&quot;&gt;&lt;br&gt;&lt;/div&gt;" style="rounded=1;whiteSpace=wrap;html=1;align=left;" parent="1" vertex="1">
          <mxGeometry x="520" y="580" width="210" height="60" as="geometry" />
        </mxCell>
        <mxCell id="iYKhy5-TffIa7aATphuN-12" style="edgeStyle=orthogonalEdgeStyle;rounded=0;orthogonalLoop=1;jettySize=auto;html=1;entryX=0;entryY=0.5;entryDx=0;entryDy=0;" parent="1" source="iYKhy5-TffIa7aATphuN-6" target="iYKhy5-TffIa7aATphuN-14" edge="1">
          <mxGeometry relative="1" as="geometry">
            <mxPoint x="700" y="690" as="targetPoint" />
            <Array as="points">
              <mxPoint x="570" y="700" />
              <mxPoint x="570" y="700" />
            </Array>
          </mxGeometry>
        </mxCell>
        <mxCell id="iYKhy5-TffIa7aATphuN-6" value="音频文件" style="rounded=1;whiteSpace=wrap;html=1;" parent="1" vertex="1">
          <mxGeometry x="320" y="660" width="120" height="60" as="geometry" />
        </mxCell>
        <mxCell id="iYKhy5-TffIa7aATphuN-11" style="edgeStyle=orthogonalEdgeStyle;rounded=0;orthogonalLoop=1;jettySize=auto;html=1;entryX=0;entryY=0.5;entryDx=0;entryDy=0;" parent="1" source="iYKhy5-TffIa7aATphuN-7" target="iYKhy5-TffIa7aATphuN-10" edge="1">
          <mxGeometry relative="1" as="geometry" />
        </mxCell>
        <mxCell id="iYKhy5-TffIa7aATphuN-7" value="视频" style="rounded=1;whiteSpace=wrap;html=1;" parent="1" vertex="1">
          <mxGeometry x="320" y="740" width="120" height="60" as="geometry" />
        </mxCell>
        <mxCell id="iYKhy5-TffIa7aATphuN-13" style="edgeStyle=orthogonalEdgeStyle;rounded=0;orthogonalLoop=1;jettySize=auto;html=1;entryX=0.5;entryY=1;entryDx=0;entryDy=0;" parent="1" source="iYKhy5-TffIa7aATphuN-10" target="iYKhy5-TffIa7aATphuN-14" edge="1">
          <mxGeometry relative="1" as="geometry">
            <mxPoint x="750" y="710" as="targetPoint" />
          </mxGeometry>
        </mxCell>
        <mxCell id="iYKhy5-TffIa7aATphuN-10" value="音频文件" style="rounded=1;whiteSpace=wrap;html=1;" parent="1" vertex="1">
          <mxGeometry x="500" y="740" width="120" height="60" as="geometry" />
        </mxCell>
        <mxCell id="iYKhy5-TffIa7aATphuN-14" value="whisper" style="rounded=1;whiteSpace=wrap;html=1;" parent="1" vertex="1">
          <mxGeometry x="650" y="670" width="120" height="60" as="geometry" />
        </mxCell>
        <mxCell id="iYKhy5-TffIa7aATphuN-17" value="" style="edgeStyle=orthogonalEdgeStyle;rounded=0;orthogonalLoop=1;jettySize=auto;html=1;" parent="1" source="iYKhy5-TffIa7aATphuN-15" target="iYKhy5-TffIa7aATphuN-16" edge="1">
          <mxGeometry relative="1" as="geometry" />
        </mxCell>
        <mxCell id="iYKhy5-TffIa7aATphuN-18" value="" style="edgeStyle=orthogonalEdgeStyle;rounded=0;orthogonalLoop=1;jettySize=auto;html=1;" parent="1" source="iYKhy5-TffIa7aATphuN-15" target="iYKhy5-TffIa7aATphuN-16" edge="1">
          <mxGeometry relative="1" as="geometry" />
        </mxCell>
        <mxCell id="iYKhy5-TffIa7aATphuN-19" style="edgeStyle=orthogonalEdgeStyle;rounded=0;orthogonalLoop=1;jettySize=auto;html=1;entryX=0.008;entryY=0.622;entryDx=0;entryDy=0;entryPerimeter=0;" parent="1" source="iYKhy5-TffIa7aATphuN-15" target="iYKhy5-TffIa7aATphuN-20" edge="1">
          <mxGeometry relative="1" as="geometry">
            <mxPoint x="1030" y="760" as="targetPoint" />
          </mxGeometry>
        </mxCell>
        <mxCell id="iYKhy5-TffIa7aATphuN-15" value="翻译模型" style="rounded=1;whiteSpace=wrap;html=1;" parent="1" vertex="1">
          <mxGeometry x="890" y="670" width="120" height="60" as="geometry" />
        </mxCell>
        <mxCell id="iYKhy5-TffIa7aATphuN-16" value="实时翻译" style="rounded=1;whiteSpace=wrap;html=1;" parent="1" vertex="1">
          <mxGeometry x="1050" y="610" width="120" height="60" as="geometry" />
        </mxCell>
        <mxCell id="iYKhy5-TffIa7aATphuN-20" value="基于转录翻译" style="rounded=1;whiteSpace=wrap;html=1;" parent="1" vertex="1">
          <mxGeometry x="1050" y="720" width="120" height="60" as="geometry" />
        </mxCell>
        <mxCell id="Vj6sFvklFlHXh2tWmXzL-15" value="" style="group" parent="1" vertex="1" connectable="0">
          <mxGeometry x="905" y="140" width="190" height="40" as="geometry" />
        </mxCell>
        <mxCell id="Vj6sFvklFlHXh2tWmXzL-3" value="" style="rounded=0;whiteSpace=wrap;html=1;fillColor=#ffcc99;strokeColor=#36393d;" parent="Vj6sFvklFlHXh2tWmXzL-15" vertex="1">
          <mxGeometry width="190" height="40" as="geometry" />
        </mxCell>
        <mxCell id="Vj6sFvklFlHXh2tWmXzL-4" value="中文" style="rounded=1;whiteSpace=wrap;html=1;" parent="Vj6sFvklFlHXh2tWmXzL-15" vertex="1">
          <mxGeometry x="10" y="5" width="70" height="30" as="geometry" />
        </mxCell>
        <mxCell id="Vj6sFvklFlHXh2tWmXzL-5" value="English" style="rounded=1;whiteSpace=wrap;html=1;" parent="Vj6sFvklFlHXh2tWmXzL-15" vertex="1">
          <mxGeometry x="110" y="5" width="70" height="30" as="geometry" />
        </mxCell>
        <mxCell id="Vj6sFvklFlHXh2tWmXzL-12" value="" style="group" parent="Vj6sFvklFlHXh2tWmXzL-15" vertex="1" connectable="0">
          <mxGeometry x="85" y="18" width="20" height="7" as="geometry" />
        </mxCell>
        <mxCell id="Vj6sFvklFlHXh2tWmXzL-6" value="" style="endArrow=classic;html=1;rounded=1;fillColor=#1ba1e2;strokeColor=#006EAF;curved=0;" parent="Vj6sFvklFlHXh2tWmXzL-12" edge="1">
          <mxGeometry width="50" height="50" relative="1" as="geometry">
            <mxPoint as="sourcePoint" />
            <mxPoint x="20" as="targetPoint" />
          </mxGeometry>
        </mxCell>
        <mxCell id="Vj6sFvklFlHXh2tWmXzL-7" value="" style="endArrow=classic;html=1;rounded=0;fillColor=#1ba1e2;strokeColor=#006EAF;" parent="Vj6sFvklFlHXh2tWmXzL-12" edge="1">
          <mxGeometry width="50" height="50" relative="1" as="geometry">
            <mxPoint x="20" y="7" as="sourcePoint" />
            <mxPoint y="7" as="targetPoint" />
          </mxGeometry>
        </mxCell>
        <mxCell id="Vj6sFvklFlHXh2tWmXzL-16" value="" style="rounded=0;whiteSpace=wrap;html=1;fillColor=#ffcc99;strokeColor=#36393d;" parent="1" vertex="1">
          <mxGeometry x="905" y="340" width="190" height="40" as="geometry" />
        </mxCell>
        <mxCell id="Vj6sFvklFlHXh2tWmXzL-17" value="" style="group" parent="1" vertex="1" connectable="0">
          <mxGeometry x="918" y="346" width="165" height="30" as="geometry" />
        </mxCell>
        <mxCell id="z3aPTN1xRcMKhVOIMbqU-21" value="退出" style="rounded=1;whiteSpace=wrap;html=1;" parent="Vj6sFvklFlHXh2tWmXzL-17" vertex="1">
          <mxGeometry x="95" width="70" height="30" as="geometry" />
        </mxCell>
        <mxCell id="Vj6sFvklFlHXh2tWmXzL-1" value="主题" style="rounded=1;whiteSpace=wrap;html=1;" parent="Vj6sFvklFlHXh2tWmXzL-17" vertex="1">
          <mxGeometry width="70" height="30" as="geometry" />
        </mxCell>
        <mxCell id="Vj6sFvklFlHXh2tWmXzL-22" value="" style="group" parent="1" vertex="1" connectable="0">
          <mxGeometry x="900" y="250" width="200" height="50" as="geometry" />
        </mxCell>
        <mxCell id="Vj6sFvklFlHXh2tWmXzL-23" value="" style="rounded=0;whiteSpace=wrap;html=1;fillColor=#ffcc99;strokeColor=#36393d;" parent="Vj6sFvklFlHXh2tWmXzL-22" vertex="1">
          <mxGeometry width="200" height="50" as="geometry" />
        </mxCell>
        <mxCell id="Vj6sFvklFlHXh2tWmXzL-24" value="转" style="ellipse;whiteSpace=wrap;html=1;aspect=fixed;" parent="Vj6sFvklFlHXh2tWmXzL-22" vertex="1">
          <mxGeometry x="11.111111111111112" y="6.25" width="31.57894736842105" height="31.57894736842105" as="geometry" />
        </mxCell>
        <mxCell id="Vj6sFvklFlHXh2tWmXzL-25" value="翻" style="ellipse;whiteSpace=wrap;html=1;aspect=fixed;" parent="Vj6sFvklFlHXh2tWmXzL-22" vertex="1">
          <mxGeometry x="55.78947368421053" y="6.25" width="31.57894736842105" height="31.57894736842105" as="geometry" />
        </mxCell>
        <mxCell id="Vj6sFvklFlHXh2tWmXzL-26" value="存" style="ellipse;whiteSpace=wrap;html=1;aspect=fixed;" parent="Vj6sFvklFlHXh2tWmXzL-22" vertex="1">
          <mxGeometry x="100" y="6.25" width="31.57894736842105" height="31.57894736842105" as="geometry" />
        </mxCell>
        <mxCell id="Vj6sFvklFlHXh2tWmXzL-27" value="改" style="ellipse;whiteSpace=wrap;html=1;aspect=fixed;" parent="Vj6sFvklFlHXh2tWmXzL-22" vertex="1">
          <mxGeometry x="144.44444444444446" y="5" width="31.57894736842105" height="31.57894736842105" as="geometry" />
        </mxCell>
        <mxCell id="Vj6sFvklFlHXh2tWmXzL-29" value="" style="rounded=0;whiteSpace=wrap;html=1;fillColor=#1ba1e2;fontColor=#ffffff;strokeColor=#006EAF;glass=0;shadow=0;" parent="1" vertex="1">
          <mxGeometry x="170" y="150" width="670" height="220" as="geometry" />
        </mxCell>
        <mxCell id="Vj6sFvklFlHXh2tWmXzL-30" value="" style="rounded=1;whiteSpace=wrap;html=1;fillColor=#60a917;fontColor=#ffffff;strokeColor=#2D7600;" parent="1" vertex="1">
          <mxGeometry x="850" y="150" width="20" height="170" as="geometry" />
        </mxCell>
        <mxCell id="Vj6sFvklFlHXh2tWmXzL-38" value="" style="ellipse;whiteSpace=wrap;html=1;aspect=fixed;fillColor=#0a0a0a;fontColor=#ffffff;strokeColor=#0d0d0d;" parent="1" vertex="1">
          <mxGeometry x="918" y="450" width="100" height="100" as="geometry" />
        </mxCell>
        <mxCell id="Vj6sFvklFlHXh2tWmXzL-40" value="" style="rounded=0;whiteSpace=wrap;html=1;fillColor=#f0a30a;fontColor=#000000;strokeColor=#BD7000;" parent="1" vertex="1">
          <mxGeometry x="130" y="-1120" width="910" height="230" as="geometry" />
        </mxCell>
        <mxCell id="Vj6sFvklFlHXh2tWmXzL-41" value="" style="rounded=0;whiteSpace=wrap;html=1;" parent="1" vertex="1">
          <mxGeometry x="145" y="-1100" width="655" height="190" as="geometry" />
        </mxCell>
        <mxCell id="Vj6sFvklFlHXh2tWmXzL-42" value="" style="rounded=0;whiteSpace=wrap;html=1;" parent="1" vertex="1">
          <mxGeometry x="820" y="-1100" width="200" height="190" as="geometry" />
        </mxCell>
        <mxCell id="Vj6sFvklFlHXh2tWmXzL-43" value="&lt;font style=&quot;font-size: 52px;&quot;&gt;frame1&lt;/font&gt;" style="text;html=1;align=center;verticalAlign=middle;whiteSpace=wrap;rounded=0;" parent="1" vertex="1">
          <mxGeometry x="320" y="-1030" width="270" height="50" as="geometry" />
        </mxCell>
        <mxCell id="Vj6sFvklFlHXh2tWmXzL-45" value="&lt;font style=&quot;font-size: 52px;&quot;&gt;frame2&lt;/font&gt;" style="text;html=1;align=center;verticalAlign=middle;whiteSpace=wrap;rounded=0;" parent="1" vertex="1">
          <mxGeometry x="830" y="-1040" width="195" height="50" as="geometry" />
        </mxCell>
        <mxCell id="Vj6sFvklFlHXh2tWmXzL-46" value="&lt;font style=&quot;font-size: 20px;&quot;&gt;gap5&lt;/font&gt;" style="text;html=1;align=center;verticalAlign=middle;whiteSpace=wrap;rounded=0;" parent="1" vertex="1">
          <mxGeometry x="200" y="-919" width="60" height="30" as="geometry" />
        </mxCell>
        <mxCell id="Vj6sFvklFlHXh2tWmXzL-47" value="&lt;font style=&quot;font-size: 20px;&quot;&gt;gap4&lt;/font&gt;" style="text;html=1;align=center;verticalAlign=middle;whiteSpace=wrap;rounded=0;" parent="1" vertex="1">
          <mxGeometry x="155" y="-1130" width="60" height="30" as="geometry" />
        </mxCell>
        <mxCell id="Vj6sFvklFlHXh2tWmXzL-48" value="&lt;font style=&quot;font-size: 20px;&quot;&gt;gap1&lt;/font&gt;" style="text;html=1;align=center;verticalAlign=middle;whiteSpace=wrap;rounded=0;" parent="1" vertex="1">
          <mxGeometry x="95" y="-1040" width="60" height="30" as="geometry" />
        </mxCell>
        <mxCell id="Vj6sFvklFlHXh2tWmXzL-49" value="&lt;font style=&quot;font-size: 20px;&quot;&gt;gap2&lt;/font&gt;" style="text;html=1;align=center;verticalAlign=middle;whiteSpace=wrap;rounded=0;" parent="1" vertex="1">
          <mxGeometry x="780" y="-1040" width="60" height="30" as="geometry" />
        </mxCell>
        <mxCell id="Vj6sFvklFlHXh2tWmXzL-50" value="&lt;font style=&quot;font-size: 20px;&quot;&gt;gap3&lt;/font&gt;" style="text;html=1;align=center;verticalAlign=middle;whiteSpace=wrap;rounded=0;" parent="1" vertex="1">
          <mxGeometry x="1010" y="-1030" width="60" height="30" as="geometry" />
        </mxCell>
        <mxCell id="Vj6sFvklFlHXh2tWmXzL-51" value="" style="rounded=0;whiteSpace=wrap;html=1;fillColor=#6d8764;fontColor=#ffffff;strokeColor=#3A5431;" parent="1" vertex="1">
          <mxGeometry x="120" y="-750" width="670" height="220" as="geometry" />
        </mxCell>
        <mxCell id="Vj6sFvklFlHXh2tWmXzL-52" value="" style="rounded=0;whiteSpace=wrap;html=1;fillColor=#f0a30a;fontColor=#000000;strokeColor=#BD7000;" parent="1" vertex="1">
          <mxGeometry x="220" y="-330" width="410" height="290" as="geometry" />
        </mxCell>
        <mxCell id="Vj6sFvklFlHXh2tWmXzL-53" value="" style="rounded=0;whiteSpace=wrap;html=1;" parent="1" vertex="1">
          <mxGeometry x="134" y="-740" width="606" height="160" as="geometry" />
        </mxCell>
        <mxCell id="Vj6sFvklFlHXh2tWmXzL-54" value="" style="rounded=1;whiteSpace=wrap;html=1;shadow=1;fillColor=#ffcd28;gradientColor=#ffa500;strokeColor=#d79b00;glass=0;" parent="1" vertex="1">
          <mxGeometry x="750" y="-740" width="30" height="150" as="geometry" />
        </mxCell>
        <mxCell id="Vj6sFvklFlHXh2tWmXzL-56" value="" style="rounded=0;whiteSpace=wrap;html=1;fillColor=#f0a30a;strokeColor=#BD7000;fontColor=#000000;" parent="1" vertex="1">
          <mxGeometry x="135" y="-569" width="420" height="30" as="geometry" />
        </mxCell>
        <mxCell id="Vj6sFvklFlHXh2tWmXzL-57" value="" style="rounded=1;whiteSpace=wrap;html=1;fillColor=#ffcd28;strokeColor=#d79b00;gradientColor=#ffa500;shadow=1;" parent="1" vertex="1">
          <mxGeometry x="570" y="-569" width="170" height="30" as="geometry" />
        </mxCell>
        <mxCell id="Vj6sFvklFlHXh2tWmXzL-58" value="" style="rounded=0;whiteSpace=wrap;html=1;" parent="1" vertex="1">
          <mxGeometry x="145" y="-564" width="85" height="20" as="geometry" />
        </mxCell>
        <mxCell id="Vj6sFvklFlHXh2tWmXzL-59" value="" style="rounded=0;whiteSpace=wrap;html=1;" parent="1" vertex="1">
          <mxGeometry x="240" y="-564" width="85" height="20" as="geometry" />
        </mxCell>
        <mxCell id="Vj6sFvklFlHXh2tWmXzL-60" value="" style="rounded=0;whiteSpace=wrap;html=1;" parent="1" vertex="1">
          <mxGeometry x="337.5" y="-564" width="85" height="20" as="geometry" />
        </mxCell>
        <mxCell id="Vj6sFvklFlHXh2tWmXzL-61" value="" style="rounded=0;whiteSpace=wrap;html=1;" parent="1" vertex="1">
          <mxGeometry x="440" y="-564" width="85" height="20" as="geometry" />
        </mxCell>
        <mxCell id="Vj6sFvklFlHXh2tWmXzL-62" value="&lt;font style=&quot;font-size: 52px;&quot;&gt;frame1&lt;/font&gt;" style="text;html=1;align=center;verticalAlign=middle;whiteSpace=wrap;rounded=0;" parent="1" vertex="1">
          <mxGeometry x="830" y="-660" width="270" height="50" as="geometry" />
        </mxCell>
        <mxCell id="Vj6sFvklFlHXh2tWmXzL-63" value="&lt;font style=&quot;font-size: 52px;&quot;&gt;frame2&lt;/font&gt;" style="text;html=1;align=center;verticalAlign=middle;whiteSpace=wrap;rounded=0;" parent="1" vertex="1">
          <mxGeometry x="690" y="-250" width="195" height="50" as="geometry" />
        </mxCell>
        <mxCell id="Vj6sFvklFlHXh2tWmXzL-64" value="" style="rounded=0;whiteSpace=wrap;html=1;" parent="1" vertex="1">
          <mxGeometry x="240" y="-310" width="360" height="60" as="geometry" />
        </mxCell>
        <mxCell id="Vj6sFvklFlHXh2tWmXzL-65" value="" style="rounded=0;whiteSpace=wrap;html=1;" parent="1" vertex="1">
          <mxGeometry x="240" y="-220" width="360" height="60" as="geometry" />
        </mxCell>
        <mxCell id="Vj6sFvklFlHXh2tWmXzL-66" value="" style="rounded=0;whiteSpace=wrap;html=1;" parent="1" vertex="1">
          <mxGeometry x="240" y="-130" width="360" height="60" as="geometry" />
        </mxCell>
        <mxCell id="Vj6sFvklFlHXh2tWmXzL-67" value="" style="rounded=1;whiteSpace=wrap;html=1;" parent="1" vertex="1">
          <mxGeometry x="270" y="-300" width="120" height="40" as="geometry" />
        </mxCell>
        <mxCell id="Vj6sFvklFlHXh2tWmXzL-68" value="" style="rounded=1;whiteSpace=wrap;html=1;" parent="1" vertex="1">
          <mxGeometry x="430" y="-300" width="120" height="40" as="geometry" />
        </mxCell>
        <mxCell id="Vj6sFvklFlHXh2tWmXzL-69" value="" style="rounded=1;whiteSpace=wrap;html=1;" parent="1" vertex="1">
          <mxGeometry x="270" y="-210" width="120" height="40" as="geometry" />
        </mxCell>
        <mxCell id="Vj6sFvklFlHXh2tWmXzL-70" value="" style="rounded=1;whiteSpace=wrap;html=1;" parent="1" vertex="1">
          <mxGeometry x="270" y="-120" width="120" height="40" as="geometry" />
        </mxCell>
        <mxCell id="Vj6sFvklFlHXh2tWmXzL-71" value="" style="rounded=1;whiteSpace=wrap;html=1;" parent="1" vertex="1">
          <mxGeometry x="430" y="-205" width="120" height="40" as="geometry" />
        </mxCell>
        <mxCell id="Vj6sFvklFlHXh2tWmXzL-72" value="" style="rounded=1;whiteSpace=wrap;html=1;" parent="1" vertex="1">
          <mxGeometry x="430" y="-120" width="120" height="40" as="geometry" />
        </mxCell>
        <mxCell id="Vj6sFvklFlHXh2tWmXzL-76" value="" style="group" parent="1" vertex="1" connectable="0">
          <mxGeometry x="903" y="190" width="195" height="50" as="geometry" />
        </mxCell>
        <mxCell id="z3aPTN1xRcMKhVOIMbqU-19" value="" style="rounded=0;whiteSpace=wrap;html=1;fillColor=#ffcc99;strokeColor=#36393d;" parent="Vj6sFvklFlHXh2tWmXzL-76" vertex="1">
          <mxGeometry width="195" height="50" as="geometry" />
        </mxCell>
        <mxCell id="Vj6sFvklFlHXh2tWmXzL-18" value="model" style="rounded=1;whiteSpace=wrap;html=1;" parent="Vj6sFvklFlHXh2tWmXzL-76" vertex="1">
          <mxGeometry x="107" y="10" width="65" height="30" as="geometry" />
        </mxCell>
        <mxCell id="Vj6sFvklFlHXh2tWmXzL-19" value="input" style="rounded=1;whiteSpace=wrap;html=1;" parent="Vj6sFvklFlHXh2tWmXzL-76" vertex="1">
          <mxGeometry x="15" y="10" width="65" height="30" as="geometry" />
        </mxCell>
        <mxCell id="6M69AKEkceTcm6-LMQbg-1" value="" style="rounded=0;whiteSpace=wrap;html=1;" vertex="1" parent="1">
          <mxGeometry x="1290" y="-1030" width="950" height="510" as="geometry" />
        </mxCell>
        <mxCell id="6M69AKEkceTcm6-LMQbg-2" value="" style="rounded=1;whiteSpace=wrap;html=1;" vertex="1" parent="1">
          <mxGeometry x="1490" y="-590" width="120" height="60" as="geometry" />
        </mxCell>
        <mxCell id="6M69AKEkceTcm6-LMQbg-3" value="" style="rounded=1;whiteSpace=wrap;html=1;" vertex="1" parent="1">
          <mxGeometry x="1634" y="-590" width="120" height="60" as="geometry" />
        </mxCell>
        <mxCell id="6M69AKEkceTcm6-LMQbg-4" value="" style="rounded=1;whiteSpace=wrap;html=1;" vertex="1" parent="1">
          <mxGeometry x="1780" y="-590" width="120" height="60" as="geometry" />
        </mxCell>
        <mxCell id="6M69AKEkceTcm6-LMQbg-5" value="" style="rounded=1;whiteSpace=wrap;html=1;" vertex="1" parent="1">
          <mxGeometry x="1930" y="-590" width="120" height="60" as="geometry" />
        </mxCell>
        <mxCell id="6M69AKEkceTcm6-LMQbg-6" value="原文" style="rounded=1;whiteSpace=wrap;html=1;" vertex="1" parent="1">
          <mxGeometry x="1290" y="-840" width="50" height="90" as="geometry" />
        </mxCell>
        <mxCell id="6M69AKEkceTcm6-LMQbg-7" value="" style="endArrow=none;html=1;rounded=0;" edge="1" parent="1">
          <mxGeometry width="50" height="50" relative="1" as="geometry">
            <mxPoint x="1740" y="-1210" as="sourcePoint" />
            <mxPoint x="1740" y="-643.2" as="targetPoint" />
          </mxGeometry>
        </mxCell>
        <mxCell id="6M69AKEkceTcm6-LMQbg-8" value="" style="endArrow=none;html=1;rounded=0;" edge="1" parent="1">
          <mxGeometry width="50" height="50" relative="1" as="geometry">
            <mxPoint x="2131.11" y="-619.8" as="sourcePoint" />
            <mxPoint x="1360.0033333333304" y="-619.9999999999998" as="targetPoint" />
          </mxGeometry>
        </mxCell>
      </root>
    </mxGraphModel>
  </diagram>
</mxfile>
